<svg xmlns="http://www.w3.org/2000/svg" xmlns:xlink="http://www.w3.org/1999/xlink" fill="none" version="1.1" width="94.82905245220172" height="22.00636538122453" viewBox="0 0 94.82905245220172 22.00636538122453"><defs><clipPath id="master_svg0_0_523"><rect x="0" y="0.006365381224529898" width="94.82757568359375" height="22" rx="0"/></clipPath></defs><g transform="matrix(1,-0.00006712584581691772,0.00006712584581691772,1,-4.2728159864369684e-7,0)" style="opacity:0.30000001192092896;" clip-path="url(#master_svg0_0_523)"><g><g><path d="M26.614940643310547,4.684525094969647C26.614940643310547,4.684525094969647,31.19195064331055,4.684525094969647,31.19195064331055,4.684525094969647C35.111490643310546,4.684525094969647,37.589640643310545,7.213265094969647,37.589640643310545,11.158085094969646C37.589640643310545,15.102925094969647,35.12414064331055,17.63162509496965,31.19195064331055,17.63162509496965C31.19195064331055,17.63162509496965,26.614940643310547,17.63162509496965,26.614940643310547,17.63162509496965C26.614940643310547,17.63162509496965,26.614940643310547,4.684525094969647,26.614940643310547,4.684525094969647ZM31.090800643310548,15.267325094969648C33.55632064331055,15.267325094969648,34.909190643310545,13.686825094969647,34.909190643310545,11.170735094969647C34.909190643310545,8.641995094969648,33.55632064331055,7.061535094969647,31.090800643310548,7.061535094969647C31.090800643310548,7.061535094969647,29.295400643310547,7.061535094969647,29.295400643310547,7.061535094969647C29.295400643310547,7.061535094969647,29.295400643310547,15.267325094969648,29.295400643310547,15.267325094969648C29.295400643310547,15.267325094969648,31.090800643310548,15.267325094969648,31.090800643310548,15.267325094969648C31.090800643310548,15.267325094969648,31.090800643310548,15.267325094969648,31.090800643310548,15.267325094969648Z" fill="#FFFFFF" fill-opacity="1"/></g><g><path d="M44.531018186035155,10.79142005346574C44.176998186035156,10.57648005346574,43.70917818603515,10.47533005346574,43.216078186035155,10.47533005346574C42.33101818603516,10.47533005346574,41.610328186035154,10.943150053465741,41.420678186035154,11.80292005346574C41.420678186035154,11.80292005346574,41.420678186035154,17.64429005346574,41.420678186035154,17.64429005346574C41.420678186035154,17.64429005346574,38.816078186035156,17.64429005346574,38.816078186035156,17.64429005346574C38.816078186035156,17.64429005346574,38.816078186035156,8.21211305346574,38.816078186035156,8.21211305346574C38.816078186035156,8.21211305346574,41.43331818603516,8.21211305346574,41.43331818603516,8.21211305346574C41.43331818603516,8.21211305346574,41.43331818603516,9.135100053465742,41.43331818603516,9.135100053465742C41.837918186035154,8.46498505346574,42.60917818603516,7.997170053465741,43.544808186035155,7.997170053465741C43.98733818603516,7.997170053465741,44.391938186035155,8.08567565346574,44.531018186035155,8.16153805346574C44.531018186035155,8.16153805346574,44.531018186035155,10.79142005346574,44.531018186035155,10.79142005346574Z" fill="#FFFFFF" fill-opacity="1"/></g><g><g transform="matrix(1,0.00006712584581691772,-0.00006712584581691772,1,-0.0011408199005629172,0.0016109448121639502)"><rect x="-23.49887543404475" y="-16.4952406063243" width="159" height="59" rx="5.5" fill-opacity="0" stroke-opacity="1" stroke="#1B1B1B" fill="none" stroke-width="1"/></g><g><path d="M49.75289899047851,17.859241960814373C47.009218990478516,17.859241960814373,45.125308990478516,15.836251960814373,45.125308990478516,12.940851960814374C45.125308990478516,10.032801960814373,47.009218990478516,7.997171960814374,49.75289899047851,7.997171960814374C52.496568990478515,7.997171960814374,54.36783899047852,10.020161960814374,54.36783899047852,12.940851960814374C54.36783899047852,15.836251960814373,52.496568990478515,17.859241960814373,49.75289899047851,17.859241960814373ZM49.75289899047851,10.222461960814375C48.43794899047852,10.222461960814375,47.72990899047851,11.360391960814374,47.72990899047851,12.940851960814374C47.72990899047851,14.496021960814375,48.45059899047852,15.646601960814372,49.75289899047851,15.646601960814372C51.05518899047851,15.646601960814372,51.77587899047852,14.508671960814373,51.77587899047852,12.940851960814374C51.77587899047852,11.360391960814374,51.05518899047851,10.222461960814375,49.75289899047851,10.222461960814375Z" fill="#FFFFFF" fill-opacity="1"/></g></g><g><path d="M58.110323953857424,21.133917682249923C58.110323953857424,21.133917682249923,55.49308395385742,21.133917682249923,55.49308395385742,21.133917682249923C55.49308395385742,21.133917682249923,55.49308395385742,8.21211668224992,55.49308395385742,8.21211668224992C55.49308395385742,8.21211668224992,58.110323953857424,8.21211668224992,58.110323953857424,8.21211668224992C58.110323953857424,8.21211668224992,58.110323953857424,8.99602468224992,58.110323953857424,8.99602468224992C58.527563953857424,8.490277682249921,59.46319395385742,8.00981768224992,60.474693953857425,8.00981768224992C63.21836395385742,8.00981768224992,64.77354395385743,10.28567768224992,64.77354395385743,12.953497682249921C64.77354395385743,15.60866768224992,63.21836395385742,17.87188768224992,60.474693953857425,17.87188768224992C59.46319395385742,17.87188768224992,58.527563953857424,17.39142768224992,58.110323953857424,16.88567768224992C58.110323953857424,16.88567768224992,58.110323953857424,21.133917682249923,58.110323953857424,21.133917682249923C58.110323953857424,21.133917682249923,58.110323953857424,21.133917682249923,58.110323953857424,21.133917682249923ZM58.110323953857424,14.48337768224992C58.42641395385742,15.14084768224992,59.12182395385742,15.583377682249921,59.88044395385742,15.583377682249921C61.29653395385742,15.583377682249921,62.143653953857424,14.44544768224992,62.143653953857424,12.94084768224992C62.143653953857424,11.423607682249921,61.29653395385742,10.28567768224992,59.88044395385742,10.28567768224992C59.096533953857424,10.28567768224992,58.42641395385742,10.75349768224992,58.110323953857424,11.38567768224992C58.110323953857424,11.38567768224992,58.110323953857424,14.48337768224992,58.110323953857424,14.48337768224992Z" fill="#FFFFFF" fill-opacity="1"/></g><g><path d="M68.54138093139649,17.6443019718007C68.54138093139649,17.6443019718007,65.89886093139648,17.6443019718007,65.89886093139648,17.6443019718007C65.89886093139648,17.6443019718007,65.89886093139648,3.9259019718007018,65.89886093139648,3.9259019718007018C65.89886093139648,3.9259019718007018,68.54138093139649,3.9259019718007018,68.54138093139649,3.9259019718007018C68.54138093139649,3.9259019718007018,68.54138093139649,8.996021971800701,68.54138093139649,8.996021971800701C68.95863093139648,8.490271971800702,69.89426093139649,8.009811971800701,70.90575093139648,8.009811971800701C73.64943093139648,8.009811971800701,75.19196093139648,10.247741971800702,75.19196093139648,12.953491971800702C75.19196093139648,15.659201971800702,73.64943093139648,17.871901971800703,70.90575093139648,17.871901971800703C69.89426093139649,17.871901971800703,68.95863093139648,17.391401971800704,68.54138093139649,16.8857019718007C68.54138093139649,16.8857019718007,68.54138093139649,17.6443019718007,68.54138093139649,17.6443019718007ZM68.54138093139649,14.483401971800701C68.83219093139648,15.140801971800702,69.52759093139649,15.583401971800702,70.31150093139648,15.583401971800702C71.72759093139649,15.583401971800702,72.57472093139648,14.445401971800703,72.57472093139648,12.940851971800702C72.57472093139648,11.423601971800702,71.72759093139649,10.285671971800703,70.31150093139648,10.285671971800703C69.55288093139649,10.285671971800703,68.83219093139648,10.753491971800702,68.54138093139649,11.3856719718007C68.54138093139649,11.3856719718007,68.54138093139649,14.483401971800701,68.54138093139649,14.483401971800701Z" fill="#FFFFFF" fill-opacity="1"/></g><g><path d="M80.7551649206543,17.884523866942303C78.0114849206543,17.884523866942303,76.1275749206543,15.861533866942302,76.1275749206543,12.966133866942304C76.1275749206543,10.058083866942303,78.0114849206543,8.022453866942303,80.7551649206543,8.022453866942303C83.49884492065429,8.022453866942303,85.3701049206543,10.045443866942303,85.3701049206543,12.966133866942304C85.3701049206543,15.861533866942302,83.4862049206543,17.884523866942303,80.7551649206543,17.884523866942303ZM80.7551649206543,10.247743866942304C79.4402249206543,10.247743866942304,78.7321749206543,11.385673866942303,78.7321749206543,12.966133866942304C78.7321749206543,14.521303866942304,79.45286492065429,15.671883866942302,80.7551649206543,15.671883866942302C82.0574649206543,15.671883866942302,82.7781549206543,14.533953866942303,82.7781549206543,12.966133866942304C82.7781549206543,11.385673866942303,82.0574649206543,10.247743866942304,80.7551649206543,10.247743866942304Z" fill="#FFFFFF" fill-opacity="1"/></g><g><path d="M91.2494308581543,12.776472984984295C91.2494308581543,12.776472984984295,94.6885108581543,17.656932984984294,94.6885108581543,17.656932984984294C94.6885108581543,17.656932984984294,91.7931108581543,17.656932984984294,91.7931108581543,17.656932984984294C91.7931108581543,17.656932984984294,89.7701208581543,14.698312984984295,89.7701208581543,14.698312984984295C89.7701208581543,14.698312984984295,87.7218408581543,17.656932984984294,87.7218408581543,17.656932984984294C87.7218408581543,17.656932984984294,84.9781608581543,17.656932984984294,84.9781608581543,17.656932984984294C84.9781608581543,17.656932984984294,88.3793108581543,12.839692984984296,88.3793108581543,12.839692984984296C88.3793108581543,12.839692984984296,85.1804638581543,8.224752984984296,85.1804638581543,8.224752984984296C85.1804638581543,8.224752984984296,88.0758608581543,8.224752984984296,88.0758608581543,8.224752984984296C88.0758608581543,8.224752984984296,89.8965508581543,10.905212984984296,89.8965508581543,10.905212984984296C89.8965508581543,10.905212984984296,91.7425308581543,8.224752984984296,91.7425308581543,8.224752984984296C91.7425308581543,8.224752984984296,94.4862108581543,8.224752984984296,94.4862108581543,8.224752984984296C94.4862108581543,8.224752984984296,91.2494308581543,12.776472984984295,91.2494308581543,12.776472984984295Z" fill="#FFFFFF" fill-opacity="1"/></g></g><g><g><path d="M6.941376784863472,0.24659522627152697C6.941376784863472,0.24659522627152697,0.12643678486347198,4.633955226271527,0.12643678486347198,4.633955226271527C0.12643678486347198,4.633955226271527,4.842526784863472,8.439695226271526,4.842526784863472,8.439695226271526C4.842526784863472,8.439695226271526,11.695436784863473,4.204065226271527,11.695436784863473,4.204065226271527C11.695436784863473,4.204065226271527,6.941376784863472,0.24659522627152697,6.941376784863472,0.24659522627152697Z" fill="#FFFFFF" fill-opacity="1"/></g><g><path d="M0.1264367675781255,12.15693901655473C0.1264367675781255,12.15693901655473,6.9413767675781255,16.63280901655473,6.9413767675781255,16.63280901655473C6.9413767675781255,16.63280901655473,11.695436767578126,12.67532901655473,11.695436767578126,12.67532901655473C11.695436767578126,12.67532901655473,4.842526767578126,8.43969901655473,4.842526767578126,8.43969901655473C4.842526767578126,8.43969901655473,0.1264367675781255,12.15693901655473,0.1264367675781255,12.15693901655473Z" fill="#FFFFFF" fill-opacity="1"/></g><g><path d="M11.69540174305439,12.67532901655473C11.69540174305439,12.67532901655473,16.44942174305439,16.63280901655473,16.44942174305439,16.63280901655473C16.44942174305439,16.63280901655473,23.23910174305439,12.20751901655473,23.23910174305439,12.20751901655473C23.23910174305439,12.20751901655473,18.535631743054388,8.43969901655473,18.535631743054388,8.43969901655473C18.535631743054388,8.43969901655473,11.69540174305439,12.67532901655473,11.69540174305439,12.67532901655473Z" fill="#FFFFFF" fill-opacity="1"/></g><g><path d="M23.23910174305439,4.671885263267505C23.23910174305439,4.671885263267505,16.44942174305439,0.2465952632675048,16.44942174305439,0.2465952632675048C16.44942174305439,0.2465952632675048,11.69540174305439,4.204065263267505,11.69540174305439,4.204065263267505C11.69540174305439,4.204065263267505,18.535631743054388,8.439695263267504,18.535631743054388,8.439695263267504C18.535631743054388,8.439695263267504,23.23910174305439,4.671885263267505,23.23910174305439,4.671885263267505Z" fill="#FFFFFF" fill-opacity="1"/></g><g><path d="M11.70804272037983,13.522456012709515C11.70804272037983,13.522456012709515,6.9413827203798295,17.479926012709516,6.9413827203798295,17.479926012709516C6.9413827203798295,17.479926012709516,4.893102720379829,16.152336012709515,4.893102720379829,16.152336012709515C4.893102720379829,16.152336012709515,4.893102720379829,17.644296012709514,4.893102720379829,17.644296012709514C4.893102720379829,17.644296012709514,11.70804272037983,21.728206012709514,11.70804272037983,21.728206012709514C11.70804272037983,21.728206012709514,18.51030272037983,17.644296012709514,18.51030272037983,17.644296012709514C18.51030272037983,17.644296012709514,18.51030272037983,16.152336012709515,18.51030272037983,16.152336012709515C18.51030272037983,16.152336012709515,16.47470272037983,17.479926012709516,16.47470272037983,17.479926012709516C16.47470272037983,17.479926012709516,11.70804272037983,13.522456012709515,11.70804272037983,13.522456012709515Z" fill="#FFFFFF" fill-opacity="1"/></g></g></g></svg>