<svg xmlns="http://www.w3.org/2000/svg" xmlns:xlink="http://www.w3.org/1999/xlink" fill="none" version="1.1" width="81.39721948950319" height="28.005463731040763" viewBox="0 0 81.39721948950319 28.005463731040763"><defs><clipPath id="master_svg0_0_553"><rect x="0" y="0.005463731040761033" width="81.39533996582031" height="28" rx="0"/></clipPath></defs><g transform="matrix(1,-0.00006712584581691772,0.00006712584581691772,1,-3.6675756742723246e-7,0)" style="opacity:0.30000001192092896;" clip-path="url(#master_svg0_0_553)"><g><g><path d="M28.00809999999292,14.622655375982031C28.01069999999292,13.486155375982031,27.66199999999292,12.376555375982031,27.00939999999292,11.44605537598203C26.35699999999292,10.515555375982032,25.43259999999292,9.809505375982031,24.36329999999292,9.424735375982031C24.46059999999292,8.928715375982032,24.50959999999292,8.424415375982031,24.509799999992918,7.918925375982031C24.51069999999292,6.245745375982032,23.98099999999292,4.615365375982031,22.99699999999292,3.2621853759820314C22.012899999992918,1.9089953759820313,20.62509999999292,0.9027143759820314,19.03299999999292,0.38801437598203137C17.441099999992918,-0.12668762401796863,15.72679999999292,-0.12329562401796862,14.136799999992919,0.39770137598203137C12.546799999992919,0.9187003759820314,11.16289999999292,1.9304753759820314,10.18419999999292,3.2875253759820313C9.46213999999292,2.7279953759820312,8.57740999999292,2.4190053759820316,7.6639899999929195,2.4073953759820315C6.750569999992919,2.3957953759820314,5.8582699999929195,2.6821753759820313,5.122209999992919,3.2231553759820315C4.386149999992919,3.7641653759820315,3.84646999999292,4.5303053759820315,3.58487999999292,5.405545375982031C3.32330999999292,6.2807753759820315,3.3540899999929197,7.217405375982032,3.6725699999929198,8.073575375982031C2.60064999999292,8.464285375982032,1.6740899999929197,9.173895375982031,1.0175099999929196,10.10695537598203C0.36093799999291964,11.040055375982032,0.005852959992919675,12.151755375982031,0.000018768292919674526,13.292655375982031C-0.0029556300070803254,14.43305537598203,0.34767399999291965,15.546455375982031,1.0036299999929197,16.479255375982028C1.6595899999929196,17.412255375982035,2.58861999999292,18.11885537598203,3.66280999999292,18.50195537598203C3.56771999999292,18.997855375982034,3.51920999999292,19.50135537598203,3.51791999999292,20.006155375982033C3.51632999999292,21.67735537598203,4.04552999999292,23.305855375982034,5.029209999992919,24.657055375982033C6.01289999999292,26.008055375982032,7.40023999999292,27.01185537598203,8.99120999999292,27.52365537598203C10.58219999999292,28.035255375982032,12.29459999999292,28.028655375982034,13.881399999992919,27.504255375982034C15.468299999992919,26.980055375982033,16.84769999999292,25.96545537598203,17.820699999992918,24.606555375982033C18.54069999999292,25.167555375982033,19.42389999999292,25.478355375982034,20.33649999999292,25.492055375982034C21.249099999992918,25.50565537598203,22.14119999999292,25.221255375982032,22.87749999999292,24.682155375982035C23.61389999999292,24.142755375982034,24.15439999999292,23.378155375982033,24.416799999992918,22.50415537598203C24.67939999999292,21.62995537598203,24.64979999999292,20.69425537598203,24.33229999999292,19.83845537598203C25.40479999999292,19.44845537598203,26.33199999999292,18.73895537598203,26.98889999999292,17.805855375982034C27.64589999999292,16.87275537598203,28.00099999999292,15.760555375982031,28.00649999999292,14.619355375982032" fill="#FFFFFF" fill-opacity="1"/></g><g><path d="M11.011160535576415,12.02101290257047C11.011160535576415,12.02101290257047,17.140230535576414,14.819412902570472,17.140230535576414,14.819412902570472C17.140230535576414,14.819412902570472,23.326250535576413,9.401742902570472,23.326250535576413,9.401742902570472C23.415350535576415,8.95472290257047,23.459650535576415,8.499892902570473,23.458150535576415,8.04406290257047C23.457850535576416,6.568372902570471,22.985250535576416,5.1315129025704715,22.109450535576414,3.943742902570471C21.233750535576416,2.7559729025704716,20.000950535576415,1.8796569025704715,18.591180535576413,1.4430159025704712C17.181580535576416,1.0063759025704713,15.669250535576415,1.0323359025704713,14.275460535576416,1.5170969025704713C12.881640535576416,2.0018639025704714,11.679560535576416,2.9199729025704713,10.845120535576415,4.137092902570471C10.845120535576415,4.137092902570471,9.814650535576416,9.46686290257047,9.814650535576416,9.46686290257047C9.814650535576416,9.46686290257047,11.011160535576415,12.02101290257047,11.011160535576415,12.02101290257047Z" fill="#000000" fill-opacity="1"/></g><g><path d="M4.667225492180419,18.51151531891416C4.57686009218042,18.96553531891416,4.531588006180419,19.42737531891416,4.5321089367904195,19.89034531891416C4.5321414948804195,21.37223531891416,5.00716549218042,22.81504531891416,5.887474492180419,24.00699531891416C6.767774492180419,25.19909531891416,8.00699449218042,26.07749531891416,9.423254492180419,26.51349531891416C10.83951449218042,26.94939531891416,12.358234492180419,26.91999531891416,13.75651449218042,26.42929531891416C15.15480449218042,25.93879531891416,16.359004492180418,25.01289531891416,17.19230449218042,23.78759531891416C17.19230449218042,23.78759531891416,18.213004492180417,18.46918531891416,18.213004492180417,18.46918531891416C18.213004492180417,18.46918531891416,16.85050449218042,15.86454531891416,16.85050449218042,15.86454531891416C16.85050449218042,15.86454531891416,10.69862449218042,13.06129531891416,10.69862449218042,13.06129531891416C10.69862449218042,13.06129531891416,4.667225492180419,18.51151531891416,4.667225492180419,18.51151531891416Z" fill="#000000" fill-opacity="1"/></g><g><path d="M4.62978302266748,7.905698781514868C4.62978302266748,7.905698781514868,8.82977902266748,8.897088781514867,8.82977902266748,8.897088781514867C8.82977902266748,8.897088781514867,9.74954902266748,4.120812781514868,9.74954902266748,4.120812781514868C9.17828902266748,3.6876437815148684,8.482079022667481,3.451173491514868,7.76517902266748,3.4468107043148684C7.04826902266748,3.4424316315148684,6.34922902266748,3.6704197815148683,5.77273902266748,4.096605781514868C5.19624602266748,4.522778781514869,4.77331602266748,5.124238781514868,4.56727202266748,5.810908781514868C4.36122742266748,6.497588781514868,4.38315522266748,7.232528781514868,4.62978302266748,7.905698781514868Z" fill="#000000" fill-opacity="1"/></g><g><path d="M4.265151400864196,8.905232239080176C3.3436214008641967,9.216195239080175,2.5419114008641968,9.806620239080177,1.9715254008641965,10.594362239080176C1.4011314008641964,11.382122239080175,1.0904127808641966,12.328052239080176,1.0825825516941965,13.300582239080175C1.0819199938641966,14.240522239080175,1.3673584008641966,15.158382239080176,1.9009554008641967,15.932162239080176C2.4345314008641967,16.706002239080178,3.1910114008641965,17.299052239080176,4.069801400864197,17.632442239080177C4.069801400864197,17.632442239080177,9.962821400864197,12.305932239080176,9.962821400864197,12.305932239080176C9.962821400864197,12.305932239080176,8.880261400864196,9.994302239080175,8.880261400864196,9.994302239080175C8.880261400864196,9.994302239080175,4.265151400864196,8.905232239080176,4.265151400864196,8.905232239080176Z" fill="#000000" fill-opacity="1"/></g><g><path d="M18.26999855040796,23.787555056157814C18.84041755040796,24.218455056157815,19.53487855040796,24.453525056157815,20.24969855040796,24.457275056157815C20.96450855040796,24.461015056157812,21.66141855040796,24.233595056157814,22.236228550407958,23.808715056157816C22.811208550407958,23.383835056157814,23.233158550407957,22.784275056157814,23.439418550407957,22.099735056157815C23.64550855040796,21.415365056157814,23.624668550407957,20.682485056157816,23.379998550407958,20.010809056157814C23.379998550407958,20.010809056157814,19.183253550407958,19.034065056157814,19.183253550407958,19.034065056157814C19.183253550407958,19.034065056157814,18.26999855040796,23.787555056157814,18.26999855040796,23.787555056157814Z" fill="#000000" fill-opacity="1"/></g><g><path d="M19.123017260124755,17.92871373993467C19.123017260124755,17.92871373993467,23.743017260124756,19.008023739934668,23.743017260124756,19.008023739934668C24.665067260124754,18.697903739934667,25.467297260124756,18.107783739934668,26.037877260124755,17.31971373993467C26.608457260124755,16.53181373993467,26.918737260124757,15.585463739934667,26.925577260124754,14.612693739934668C26.924757260124757,13.674733739934668,26.638737260124756,12.759223739934669,26.105597260124753,11.987573739934668C25.572297260124756,11.215946739934669,24.817107260124757,10.624674739934669,23.939997260124755,10.292223739934668C23.939997260124755,10.292223739934668,17.897207260124755,15.582923739934667,17.897207260124755,15.582923739934667C17.897207260124755,15.582923739934667,19.123017260124755,17.92871373993467,19.123017260124755,17.92871373993467Z" fill="#000000" fill-opacity="1"/></g><g><path d="M39.16092907103784,19.605468724981055C39.16092907103784,19.605468724981055,39.720929071037844,19.548488724981055,39.720929071037844,19.548488724981055C39.720929071037844,19.548488724981055,39.759999071037846,20.688018724981056,39.759999071037846,20.688018724981056C38.51383907103784,20.876208724981055,37.256439071037846,20.979578724981053,35.99627907103785,20.997278724981054C34.607189071037844,20.997278724981054,33.62278907103784,20.595228724981055,33.04325707103784,19.791048724981053C32.46372207103784,18.986858724981055,32.17444289103784,17.735488724981053,32.17558242448784,16.037088724981054C32.17558242448784,12.654298724981055,33.520229071037846,10.962369424981055,36.209539071037845,10.961278724981055C37.51185907103785,10.961278724981055,38.48322907103785,11.324854724981055,39.123489071037845,12.051978724981055C39.763909071037844,12.779108724981056,40.08508907103784,13.918648724981054,40.08720907103785,15.470578724981054C40.08720907103785,15.470578724981054,40.01069907103785,16.571048724981054,40.01069907103785,16.571048724981054C40.01069907103785,16.571048724981054,33.64232907103784,16.571048724981054,33.64232907103784,16.571048724981054C33.64232907103784,17.638948724981056,33.83555907103784,18.430108724981054,34.22185907103785,18.944528724981055C34.60832907103784,19.458948724981056,35.27999907103784,19.716158724981057,36.237209071037846,19.716158724981057C37.19669907103784,19.719418724981054,38.17115907103785,19.682458724981053,39.16092907103784,19.605468724981055ZM38.63999907103784,15.418488724981055C38.63999907103784,14.234458724981055,38.45067907103785,13.398258724981055,38.07185907103784,12.909878724981056C37.69304907103785,12.421508724981054,37.07557907103784,12.176788724981055,36.21930907103784,12.175698724981055C35.36302907103784,12.175698724981055,34.719519071037844,12.432908724981054,34.28860907103785,12.947328724981055C33.85785907103784,13.461738724981055,33.635819071037844,14.285468724981055,33.62278907103784,15.418488724981055C33.62278907103784,15.418488724981055,38.63999907103784,15.418488724981055,38.63999907103784,15.418488724981055Z" fill="#FFFFFF" fill-opacity="1"/></g><g><path d="M42.1058044433523,20.920838618779882C42.1058044433523,20.920838618779882,42.1058044433523,8.223138618779883,42.1058044433523,8.223138618779883C42.1058044433523,8.223138618779883,43.553014443352296,8.223138618779883,43.553014443352296,8.223138618779883C43.553014443352296,8.223138618779883,43.553014443352296,20.920838618779882,43.553014443352296,20.920838618779882C43.553014443352296,20.920838618779882,42.1058044433523,20.920838618779882,42.1058044433523,20.920838618779882Z" fill="#FFFFFF" fill-opacity="1"/></g><g><path d="M52.66766978026636,14.067319849248634C52.66766978026636,14.067319849248634,52.66766978026636,18.93476984924863,52.66766978026636,18.93476984924863C52.66766978026636,19.423139849248635,53.86905978026636,19.397089849248633,53.86905978026636,19.397089849248633C53.86905978026636,19.397089849248633,53.79580978026636,20.676629849248634,53.79580978026636,20.676629849248634C52.77835978026636,20.676629849248634,51.93673978026636,20.76127984924863,51.43208978026636,20.271279849248632C50.33926978026636,20.756719849248633,49.15545978026636,21.00364984924863,47.95975978026636,20.995649849248633C47.07303978026636,20.995649849248633,46.39745978026636,20.744509849248633,45.93301778026636,20.241969849248633C45.46857678026636,19.739439849248633,45.23676443026636,19.017299849248634,45.23790396098636,18.075229849248633C45.23790396098636,17.135439849248634,45.47606378026636,16.443579849248632,45.95255278026636,15.999649849248634C46.42903978026636,15.555779849248633,47.17510978026636,15.284459849248634,48.19091978026636,15.185699849248632C48.19091978026636,15.185699849248632,51.22045978026636,14.897559849248633,51.22045978026636,14.897559849248633C51.22045978026636,14.897559849248633,51.22045978026636,14.067319849248634,51.22045978026636,14.067319849248634C51.22045978026636,13.416159849248633,51.07931978026636,12.946249849248632,50.79719978026636,12.657559849248633C50.642549780266364,12.512429849248633,50.46022978026636,12.400099849248633,50.26096978026636,12.327369849248633C50.06170978026636,12.254629849248634,49.84992978026636,12.222969849248633,49.63813978026636,12.234299849248632C49.63813978026636,12.234299849248632,45.83534278026636,12.234299849248632,45.83534278026636,12.234299849248632C45.83534278026636,12.234299849248632,45.83534278026636,10.959649849248633,45.83534278026636,10.959649849248633C45.83534278026636,10.959649849248633,49.54207978026636,10.959649849248633,49.54207978026636,10.959649849248633C50.63603978026636,10.959649849248633,51.43045978026636,11.210900849248633,51.92533978026636,11.713369849248632C52.42022978026636,12.215859849248632,52.66766978026636,13.000509849248633,52.66766978026636,14.067319849248634ZM46.720919780266364,18.003599849248634C46.720919780266364,19.187579849248635,47.20929978026636,19.779649849248635,48.18603978026636,19.779649849248635C49.06722978026636,19.778669849248633,49.94189978026636,19.628419849248633,50.77278978026636,19.335229849248634C50.77278978026636,19.335229849248634,51.215569780266364,19.18057984924863,51.215569780266364,19.18057984924863C51.215569780266364,19.18057984924863,51.215569780266364,15.996389849248633,51.215569780266364,15.996389849248633C51.215569780266364,15.996389849248633,48.36510978026636,16.266629849248634,48.36510978026636,16.266629849248634C47.78557978026636,16.318719849248634,47.36720978026636,16.485909849248632,47.109999780266364,16.76801984924863C46.85278978026636,17.050139849248634,46.72303978026636,17.461999849248635,46.720919780266364,18.003599849248634Z" fill="#FFFFFF" fill-opacity="1"/></g><g><path d="M58.31814124388941,12.253831927190527C56.914881243889404,12.253831927190527,56.21325124388941,12.742211927190528,56.21325124388941,13.718951927190528C56.21325124388941,14.170431927190528,56.37604124388941,14.488951927190527,56.70163124388941,14.674531927190527C57.027211243889404,14.860111927190527,57.76042124388941,15.053301927190528,58.90093124388941,15.254071927190527C60.046981243889405,15.454851927190528,60.857671243889406,15.734851927190528,61.333021243889405,16.094071927190527C61.80837124388941,16.45335192719053,62.046691243889406,17.128281927190528,62.04767124388941,18.119181927190528C62.04767124388941,19.11107192719053,61.72925124388941,19.838251927190527,61.092091243889406,20.300581927190528C60.455091243889406,20.762901927190526,59.52555124388941,20.994521927190526,58.30348124388941,20.995721927190527C57.505811243889404,20.995721927190527,54.84255954388941,20.699421927190528,54.84255954388941,20.699421927190528C54.84255954388941,20.699421927190528,54.92069624388941,19.44593192719053,54.92069624388941,19.44593192719053C56.45093124388941,19.592441927190528,57.55628124388941,19.701511927190527,58.30348124388941,19.701511927190527C59.0506912438894,19.701511927190527,59.618841243889406,19.58267192719053,60.011161243889404,19.345001927190527C60.403491243889405,19.107321927190526,60.59883124388941,18.708481927190526,60.59883124388941,18.148481927190527C60.59883124388941,17.58848192719053,60.43605124388941,17.209181927190528,60.097441243889406,17.008951927190527C59.75884124388941,16.808721927190525,59.02953124388941,16.619881927190526,57.898141243889405,16.43918192719053C56.766741243889406,16.258481927190527,55.960931243889405,15.994761927190527,55.48558024388941,15.648021927190527C55.01023124388941,15.301281927190526,54.77093124388941,14.656631927190528,54.77093124388941,13.717321927190527C54.77093124388941,12.778021927190528,55.096510243889405,12.089421927190527,55.76558024388941,11.633603927190528C56.434651243889405,11.177789927190528,57.255121243889405,10.958021927190527,58.24488124388941,10.958021927190527C59.02953124388941,10.958021927190527,61.75302124388941,11.158254927190528,61.75302124388941,11.158254927190528C61.75302124388941,11.158254927190528,61.75302124388941,12.419881927190527,61.75302124388941,12.419881927190527C60.315581243889405,12.356391927190527,59.14023124388941,12.253831927190527,58.31814124388941,12.253831927190527Z" fill="#FFFFFF" fill-opacity="1"/></g><g><path d="M69.02324076171168,12.406872968755469C69.02324076171168,12.406872968755469,65.95464076171167,12.406872968755469,65.95464076171167,12.406872968755469C65.95464076171167,12.406872968755469,65.95464076171167,17.020342968755468,65.95464076171167,17.020342968755468C65.95464076171167,18.12618296875547,66.03490076171167,18.852862968755467,66.19557076171168,19.20016296875547C66.35836076171168,19.54846296875547,66.73929076171167,19.72106296875547,67.34324076171167,19.72106296875547C67.34324076171167,19.72106296875547,69.06069076171167,19.605462968755468,69.06069076171167,19.605462968755468C69.06069076171167,19.605462968755468,69.15836076171168,20.80196296875547,69.15836076171168,20.80196296875547C68.50801076171167,20.92226296875547,67.84953076171168,20.99346296875547,67.18860076171167,21.01526296875547C66.18580076171168,21.01526296875547,65.49117076171167,20.77056296875547,65.10487076171167,20.28106296875547C64.71857076171167,19.79156296875547,64.52583076171167,18.85876296875547,64.52697076171167,17.48267296875547C64.52697076171167,17.48267296875547,64.52697076171167,12.406872968755469,64.52697076171167,12.406872968755469C64.52697076171167,12.406872968755469,63.16278076171167,12.406872968755469,63.16278076171167,12.406872968755469C63.16278076171167,12.406872968755469,63.16278076171167,11.15338296875547,63.16278076171167,11.15338296875547C63.16278076171167,11.15338296875547,64.53348076171167,11.15338296875547,64.53348076171167,11.15338296875547C64.53348076171167,11.15338296875547,64.53348076171167,8.200362968755469,64.53348076171167,8.200362968755469C64.53348076171167,8.200362968755469,65.96115076171168,8.200362968755469,65.96115076171168,8.200362968755469C65.96115076171168,8.200362968755469,65.96115076171168,11.15338296875547,65.96115076171168,11.15338296875547C65.96115076171168,11.15338296875547,69.02324076171168,11.15338296875547,69.02324076171168,11.15338296875547C69.02324076171168,11.15338296875547,69.02324076171168,12.406872968755469,69.02324076171168,12.406872968755469Z" fill="#FFFFFF" fill-opacity="1"/></g><g><path d="M71.03533935546167,9.921061020208105C71.03533935546167,9.921061020208105,71.03533935546167,8.241061020208106,71.03533935546167,8.241061020208106C71.03533935546167,8.241061020208106,72.48254935546167,8.241061020208106,72.48254935546167,8.241061020208106C72.48254935546167,8.241061020208106,72.48254935546167,9.921061020208105,72.48254935546167,9.921061020208105C72.48254935546167,9.921061020208105,71.03533935546167,9.921061020208105,71.03533935546167,9.921061020208105ZM71.03533935546167,20.920861020208108C71.03533935546167,20.920861020208108,71.03533935546167,11.153391020208105,71.03533935546167,11.153391020208105C71.03533935546167,11.153391020208105,72.48254935546167,11.153391020208105,72.48254935546167,11.153391020208105C72.48254935546167,11.153391020208105,72.48254935546167,20.920861020208108,72.48254935546167,20.920861020208108C72.48254935546167,20.920861020208108,71.03533935546167,20.920861020208108,71.03533935546167,20.920861020208108Z" fill="#FFFFFF" fill-opacity="1"/></g><g><path d="M78.75162325682886,10.959649849248633C79.47441325682885,10.990498649248632,80.19427325682886,11.068263849248632,80.90697325682886,11.192440849248634C80.90697325682886,11.192440849248634,81.36930325682886,11.249416849248632,81.36930325682886,11.249416849248632C81.36930325682886,11.249416849248632,81.31232325682886,12.426389849248633,81.31232325682886,12.426389849248633C80.55599325682886,12.330579849248632,79.79544325682886,12.272979849248633,79.03325325682886,12.253839849248633C77.93930325682886,12.253839849248633,77.19648325682886,12.514299849248633,76.80464325682885,13.035229849248633C76.41281325682885,13.556159849248633,76.21648325682887,14.520969849248633,76.21534325682886,15.929649849248634C76.21534325682886,17.340559849248635,76.39881325682886,18.321529849248634,76.76558325682886,18.872909849248632C77.13234325682886,19.424279849248634,77.89746325682886,19.70101984924863,79.06093325682886,19.703139849248632C79.06093325682886,19.703139849248632,81.33999325682886,19.53057984924863,81.33999325682886,19.53057984924863C81.33999325682886,19.53057984924863,81.39860325682886,20.727089849248635,81.39860325682886,20.727089849248635C80.51139325682885,20.87734984924863,79.61523325682886,20.96764984924863,78.71581325682887,20.997349849248632C77.21162325682886,20.997349849248632,76.17302325682886,20.611019849248635,75.59999825682885,19.838249849248633C75.02697425682886,19.065489849248635,74.74046325682886,17.763159849248634,74.74046325682886,15.931279849248632C74.74046325682886,14.098249849248633,75.04927725682886,12.811669849248633,75.66674225682885,12.071509849248633C76.28420325682886,11.331366849248633,77.31255325682886,10.960740549248634,78.75162325682886,10.959649849248633Z" fill="#FFFFFF" fill-opacity="1"/></g></g></g></svg>