<svg xmlns="http://www.w3.org/2000/svg" xmlns:xlink="http://www.w3.org/1999/xlink" fill="none" version="1.1" width="160" height="60" viewBox="0 0 160 60"><g><g><rect x="0.5" y="0.5" width="159" height="59" rx="5.5" fill-opacity="0" stroke-opacity="1" stroke="#1B1B1B" fill="none" stroke-width="1"/></g><g transform="matrix(1,-0.00006712584581691772,0.00006712584581691772,1,-0.0011411393788876012,0.003356292290845886)" style="opacity:0.30000001192092896;"><g><path d="M110.0802092956543,29.91723835708618C110.0802092956543,25.64487835708618,108.0107092956543,22.27371835708618,104.05546929565429,22.27371835708618C100.0835092956543,22.27371835708618,97.6803092956543,25.64487835708618,97.6803092956543,29.883868357086182C97.6803092956543,34.90721835708618,100.5174292956543,37.44391835708618,104.5895192956543,37.44391835708618C106.5754992956543,37.44391835708618,108.0775092956543,36.99331835708618,109.2123092956543,36.35911835708618C109.2123092956543,36.35911835708618,109.2123092956543,33.02141835708618,109.2123092956543,33.02141835708618C108.0775092956543,33.58881835708618,106.7757692956543,33.93931835708618,105.1235592956543,33.93931835708618C103.5047392956543,33.93931835708618,102.0694892956543,33.371818357086184,101.8859092956543,31.402558357086182C101.8859092956543,31.402558357086182,110.0468092956543,31.402558357086182,110.0468092956543,31.402558357086182C110.0468092956543,31.18559835708618,110.0802092956543,30.317778357086183,110.0802092956543,29.91723835708618ZM101.8358492956543,28.331798357086182C101.8358492956543,26.44594835708618,102.98737929565429,25.661568357086182,104.0387792956543,25.661568357086182C105.05680929565429,25.661568357086182,106.1415892956543,26.44594835708618,106.1415892956543,28.331798357086182C106.1415892956543,28.331798357086182,101.8358492956543,28.331798357086182,101.8358492956543,28.331798357086182Z" fill-rule="evenodd" fill="#FFFFFF" fill-opacity="1"/></g><g><path d="M91.23816472534179,22.273685455322266C89.6026547253418,22.273685455322266,88.55125472534179,23.041376455322265,87.9671447253418,23.575425455322264C87.9671447253418,23.575425455322264,87.7501847253418,22.540707455322266,87.7501847253418,22.540707455322266C87.7501847253418,22.540707455322266,84.0786247253418,22.540707455322266,84.0786247253418,22.540707455322266C84.0786247253418,22.540707455322266,84.0786247253418,41.99998545532226,84.0786247253418,41.99998545532226C84.0786247253418,41.99998545532226,88.2508547253418,41.115485455322265,88.2508547253418,41.115485455322265C88.2508547253418,41.115485455322265,88.26753472534179,36.392485455322266,88.26753472534179,36.392485455322266C88.8683347253418,36.82638545532227,89.75285472534179,37.44388545532227,91.22147472534179,37.44388545532227C94.2088247253418,37.44388545532227,96.9291247253418,35.04068545532226,96.9291247253418,29.750315455322266C96.9124247253418,24.910535455322265,94.1587247253418,22.273685455322266,91.23816472534179,22.273685455322266ZM90.2368347253418,33.772385455322265C89.25218472534179,33.772385455322265,88.6680747253418,33.42188545532227,88.26753472534179,32.98798545532227C88.26753472534179,32.98798545532227,88.2508547253418,26.796385455322266,88.2508547253418,26.796385455322266C88.6847647253418,26.312405455322263,89.2855647253418,25.978625455322266,90.2368347253418,25.978625455322266C91.7555247253418,25.978625455322266,92.8069247253418,27.680895455322265,92.8069247253418,29.867145455322266C92.8069247253418,32.10345545532226,91.7722147253418,33.772385455322265,90.2368347253418,33.772385455322265Z" fill-rule="evenodd" fill="#FFFFFF" fill-opacity="1"/></g><g><path d="M78.33768463134766,21.28905951428956C78.33768463134766,21.28905951428956,82.52660463134765,20.38785951428956,82.52660463134765,20.38785951428956C82.52660463134765,20.38785951428956,82.52660463134765,17.00000951428956,82.52660463134765,17.00000951428956C82.52660463134765,17.00000951428956,78.33768463134766,17.88452151428956,78.33768463134766,17.88452151428956C78.33768463134766,17.88452151428956,78.33768463134766,21.28905951428956,78.33768463134766,21.28905951428956Z" fill-rule="evenodd" fill="#FFFFFF" fill-opacity="1"/></g><g><path d="M78.3377799987793,22.55743646621704C78.3377799987793,22.55743646621704,82.52669999877929,22.55743646621704,82.52669999877929,22.55743646621704C82.52669999877929,22.55743646621704,82.52669999877929,37.16023646621704,82.52669999877929,37.16023646621704C82.52669999877929,37.16023646621704,78.3377799987793,37.16023646621704,78.3377799987793,37.16023646621704C78.3377799987793,37.16023646621704,78.3377799987793,22.55743646621704,78.3377799987793,22.55743646621704Z" fill="#FFFFFF" fill-opacity="1"/></g><g><path d="M73.84851075561524,23.792366251220702C73.84851075561524,23.792366251220702,73.58149075561523,22.5573822512207,73.58149075561523,22.5573822512207C73.58149075561523,22.5573822512207,69.97668075561523,22.5573822512207,69.97668075561523,22.5573822512207C69.97668075561523,22.5573822512207,69.97668075561523,37.160176251220705,69.97668075561523,37.160176251220705C69.97668075561523,37.160176251220705,74.14891075561523,37.160176251220705,74.14891075561523,37.160176251220705C74.14891075561523,37.160176251220705,74.14891075561523,27.263656251220702,74.14891075561523,27.263656251220702C75.13356075561524,25.978606251220704,76.80245075561524,26.2122562512207,77.31980075561523,26.395836251220704C77.31980075561523,26.395836251220704,77.31980075561523,22.5573822512207,77.31980075561523,22.5573822512207C76.78576075561523,22.3571155512207,74.83315075561524,21.989958251220703,73.84851075561524,23.792366251220702Z" fill-rule="evenodd" fill="#FFFFFF" fill-opacity="1"/></g><g><path d="M65.50410230377197,18.935903549194336C65.50410230377197,18.935903549194336,61.432011003771976,19.803727549194335,61.432011003771976,19.803727549194335C61.432011003771976,19.803727549194335,61.41532230377197,33.171503549194334,61.41532230377197,33.171503549194334C61.41532230377197,35.64150354919434,63.26779230377197,37.46060354919433,65.73775230377197,37.46060354919433C67.10624230377198,37.46060354919433,68.10758230377198,37.210303549194336,68.65831230377198,36.90990354919434C68.65831230377198,36.90990354919434,68.65831230377198,33.52200354919434,68.65831230377198,33.52200354919434C68.12427230377197,33.73900354919434,65.48742230377198,34.506703549194334,65.48742230377198,32.036703549194335C65.48742230377198,32.036703549194335,65.48742230377198,26.112133549194336,65.48742230377198,26.112133549194336C65.48742230377198,26.112133549194336,68.65831230377198,26.112133549194336,68.65831230377198,26.112133549194336C68.65831230377198,26.112133549194336,68.65831230377198,22.557403549194337,68.65831230377198,22.557403549194337C68.65831230377198,22.557403549194337,65.48742230377198,22.557403549194337,65.48742230377198,22.557403549194337C65.48742230377198,22.557403549194337,65.50410230377197,18.935903549194336,65.50410230377197,18.935903549194336Z" fill-rule="evenodd" fill="#FFFFFF" fill-opacity="1"/></g><g><path d="M54.2224155005084,26.79638688583374C54.2224155005084,26.14551688583374,54.7564555005084,25.89518688583374,55.6409655005084,25.89518688583374C56.9093255005084,25.89518688583374,58.5114655005084,26.27902688583374,59.7798255005084,26.96327688583374C59.7798255005084,26.96327688583374,59.7798255005084,23.041376885833742,59.7798255005084,23.041376885833742C58.3946455005084,22.49064288583374,57.0261455005084,22.27368688583374,55.6409655005084,22.27368688583374C52.2531155005084,22.273686885833737,50.0001155005084,24.04271688583374,50.0001155005084,26.99664688583374C50.0001155005084,31.60279688583374,56.3419055005084,30.86847688583374,56.3419055005084,32.85448688583374C56.3419055005084,33.62218688583374,55.6743455005084,33.87248688583374,54.7397655005084,33.87248688583374C53.3545855005084,33.87248688583374,51.5855655005084,33.30508688583374,50.1836935005084,32.53738688583374C50.1836935005084,32.53738688583374,50.1836935005084,36.50928688583374,50.1836935005084,36.50928688583374C51.7357655005084,37.17688688583374,53.3045255005084,37.46058688583374,54.7397655005084,37.46058688583374C58.2110655005084,37.46058688583374,60.5976155005084,35.741686885833744,60.5976155005084,32.75428688583374C60.5809155005084,27.78102688583374,54.2224155005084,28.66554688583374,54.2224155005084,26.79638688583374Z" fill-rule="evenodd" fill="#FFFFFF" fill-opacity="1"/></g></g></g></svg>